<svg version="1.1" id="Layer_1" xmlns="http://www.w3.org/2000/svg" xmlns:xlink="http://www.w3.org/1999/xlink" x="0px" y="0px"
	 width="100%" viewBox="0 0 863 431" enable-background="new 0 0 863 431" xml:space="preserve">

<path fill="#4D9FEB" opacity="1.000000" stroke="none" 
	d="
M256.043243,312.855957 
	C252.922501,312.551483 249.802994,311.999390 246.680786,311.983704 
	C229.516907,311.897552 212.352341,311.942596 195.188019,311.942596 
	C193.381927,311.942596 191.575836,311.942596 189.264633,311.942596 
	C182.319260,259.629150 175.417130,207.641510 168.514999,155.653885 
	C168.167252,155.634018 167.819519,155.614151 167.471771,155.594284 
	C160.583466,207.497482 153.695145,259.400696 146.766632,311.606750 
	C122.149246,311.606750 97.726761,311.606750 72.301758,311.606750 
	C104.117050,236.981064 135.773804,162.727249 167.957260,87.237991 
	C188.722458,135.795944 209.068344,183.373337 229.753723,231.480255 
	C237.885330,250.645432 245.666428,269.285675 253.474869,287.914459 
	C256.713409,295.640778 260.010498,303.342621 263.342987,311.201782 
	C260.414429,311.865417 258.228851,312.360687 256.043243,312.855957 
z"/>
<path fill="#2377C7" opacity="1.000000" stroke="none" 
	d="
M256.448120,312.961578 
	C258.228851,312.360687 260.414429,311.865417 263.342987,311.201782 
	C260.010498,303.342621 256.713409,295.640778 253.474869,287.914459 
	C245.666428,269.285675 237.885330,250.645432 230.090729,231.648529 
	C236.286972,216.695847 245.575333,204.851135 260.522797,198.513184 
	C273.258423,193.113129 286.323090,192.451950 299.402649,197.534286 
	C307.817902,200.804184 313.994751,206.601852 318.618591,216.088654 
	C320.227966,206.023972 321.638184,197.337875 323.001984,188.644470 
	C325.063446,175.503799 327.034180,162.348267 329.230530,149.230392 
	C329.438202,147.990021 330.950348,146.025253 331.901367,145.998856 
	C340.840118,145.750717 349.788574,145.851486 359.208466,145.851486 
	C350.375519,201.442841 341.642120,256.407593 332.866638,311.637329 
	C323.296631,311.637329 313.894592,311.637329 304.165619,311.637329 
	C304.948792,306.340546 305.690826,301.322113 306.432861,296.303680 
	C292.898529,311.441650 276.471588,316.919556 256.448120,312.961578 
M254.871277,271.489380 
	C256.308716,280.572479 260.843811,287.266083 269.766296,290.403137 
	C281.411316,294.497375 294.554169,290.831238 302.104553,281.047424 
	C312.038727,268.174591 314.471558,253.294373 312.161377,237.628189 
	C311.536377,233.389877 309.589508,228.888718 306.977966,225.483215 
	C297.488525,213.108871 277.313232,213.421494 266.186981,226.183716 
	C255.049576,238.958679 252.848480,254.348450 254.871277,271.489380 
z"/>
<path fill="#2377C7" opacity="1.000000" stroke="none" 
	d="
M485.005615,310.057800 
	C466.687103,302.165985 457.425385,288.099640 455.636200,269.006012 
	C452.321350,233.630676 470.536194,205.303253 501.518158,196.818405 
	C521.504883,191.344742 540.955750,192.987137 557.606079,207.006592 
	C568.002441,215.760208 572.484009,227.636353 573.451965,240.914841 
	C575.772278,272.745972 560.383179,300.173065 532.352295,310.356445 
	C516.819885,315.999237 501.013702,315.740509 485.005615,310.057800 
M543.871582,250.181778 
	C542.704041,243.054047 543.053223,235.203766 540.069885,228.940994 
	C532.644104,213.352493 508.755402,212.103317 496.908936,226.410339 
	C485.044250,240.739365 482.690094,257.547546 486.716522,275.295044 
	C488.497192,283.143646 493.807343,288.349487 501.577820,290.711395 
	C513.481384,294.329590 525.509399,290.464752 533.307861,280.713104 
	C540.236633,272.049042 542.679382,261.807129 543.871582,250.181778 
z"/>
<path fill="#2377C7" opacity="1.000000" stroke="none" 
	d="
M633.963135,196.659180 
	C634.517761,198.667038 635.055420,200.693237 634.763733,202.592087 
	C631.431519,224.285889 627.931824,245.953949 624.596436,267.647278 
	C624.145996,270.576996 623.981140,273.650574 624.322021,276.583374 
	C625.391296,285.781830 630.632080,290.471283 639.858215,290.918304 
	C655.675598,291.684631 668.226257,282.005707 671.908081,264.611206 
	C675.313171,248.524246 677.389954,232.155762 680.037048,215.908875 
	C681.051392,209.683487 682.024902,203.451447 683.063538,196.930237 
	C692.770691,196.930237 702.297913,196.930237 712.496033,196.930237 
	C706.461060,235.307693 700.480286,273.340546 694.459412,311.627991 
	C684.923706,311.627991 675.685730,311.627991 665.836731,311.627991 
	C666.549072,306.465881 667.241150,301.450958 668.114685,295.120697 
	C665.631714,297.760834 663.995056,299.656799 662.198425,301.386566 
	C648.781677,314.304016 632.772095,317.068176 615.497742,312.049133 
	C601.587708,308.007599 593.996521,297.019257 594.355530,281.171021 
	C594.602783,270.260010 596.502258,259.357697 598.080261,248.512177 
	C600.568665,231.410217 603.407410,214.359207 606.203186,196.618393 
	C615.387939,196.618393 624.474426,196.618393 633.963135,196.659180 
z"/>
<path fill="#2478C7" opacity="1.000000" stroke="none" 
	d="
M383.371460,230.352646 
	C384.010071,226.485199 384.558838,223.046921 385.202301,219.015411 
	C377.828766,219.015411 370.759827,219.015411 363.184540,219.015411 
	C364.251495,211.887344 365.092224,205.351456 366.345795,198.895706 
	C366.532013,197.936890 368.641724,196.749542 369.899902,196.702927 
	C376.031738,196.475754 382.176636,196.600159 388.723206,196.600159 
	C390.605743,185.033707 392.437164,173.781418 394.293488,162.376007 
	C404.106415,162.376007 413.547485,162.376007 423.596313,162.376007 
	C421.900391,173.643677 420.234924,184.709335 418.481262,196.360718 
	C430.172668,196.360718 441.256805,196.360718 453.182495,196.360718 
	C451.967316,204.079819 450.849884,211.178192 449.657104,218.755051 
	C438.076721,218.755051 426.644745,218.755051 414.849670,218.755051 
	C413.216827,228.678024 411.631836,238.163422 410.101807,247.657654 
	C408.990265,254.555069 407.888275,261.455109 406.892273,268.369873 
	C404.123962,287.588409 415.909210,291.276855 430.275574,289.541718 
	C432.702484,289.248627 435.074097,288.497589 438.012756,287.836243 
	C438.600891,294.749908 439.276062,301.333160 439.598175,307.933624 
	C439.646484,308.923065 438.236725,310.584808 437.171448,310.936829 
	C422.387573,315.822388 407.513916,316.207092 393.526123,308.907013 
	C380.182831,301.943268 375.588043,289.470032 376.853394,275.219757 
	C378.013550,262.154785 380.568604,249.213745 382.505280,236.217545 
	C382.775055,234.407272 383.023346,232.593811 383.371460,230.352646 
z"/>
<path fill="#2378C7" opacity="1.000000" stroke="none" 
	d="
M772.820984,230.897400 
	C765.649597,239.995926 764.671875,250.721603 762.999817,261.210266 
	C760.331299,277.948822 757.722229,294.696838 755.052734,311.665253 
	C745.064941,311.665253 735.328918,311.665253 725.096069,311.665253 
	C726.756226,301.268005 728.369202,291.145477 729.989197,281.024078 
	C734.272400,254.264145 738.620605,227.514267 742.758728,200.731934 
	C743.232483,197.665482 744.087646,196.449249 747.328735,196.531631 
	C755.436462,196.737778 763.553040,196.599655 772.108398,196.599655 
	C771.301025,202.291382 770.573730,207.418030 769.846497,212.544678 
	C781.910095,197.456436 797.997742,193.575943 815.982422,193.932037 
	C815.982422,202.155579 815.982422,210.196762 815.982422,218.488327 
	C808.046021,219.335342 800.623657,220.025253 793.229797,220.944672 
	C785.457336,221.911179 778.322754,224.371002 772.820984,230.897400 
z"/>
<path fill="#FDFEFF" opacity="1.000000" stroke="none" 
	d="
M254.795074,271.063965 
	C252.848480,254.348450 255.049576,238.958679 266.186981,226.183716 
	C277.313232,213.421494 297.488525,213.108871 306.977966,225.483215 
	C309.589508,228.888718 311.536377,233.389877 312.161377,237.628189 
	C314.471558,253.294373 312.038727,268.174591 302.104553,281.047424 
	C294.554169,290.831238 281.411316,294.497375 269.766296,290.403137 
	C260.843811,287.266083 256.308716,280.572479 254.795074,271.063965 
z"/>
<path fill="#FDFEFF" opacity="1.000000" stroke="none" 
	d="
M543.850952,250.640137 
	C542.679382,261.807129 540.236633,272.049042 533.307861,280.713104 
	C525.509399,290.464752 513.481384,294.329590 501.577820,290.711395 
	C493.807343,288.349487 488.497192,283.143646 486.716522,275.295044 
	C482.690094,257.547546 485.044250,240.739365 496.908936,226.410339 
	C508.755402,212.103317 532.644104,213.352493 540.069885,228.940994 
	C543.053223,235.203766 542.704041,243.054047 543.850952,250.640137 
z"/>
</svg>